<?xml version="1.0" encoding="UTF-8"?><svg id="Layer_2" xmlns="http://www.w3.org/2000/svg" xmlns:xlink="http://www.w3.org/1999/xlink" viewBox="0 0 252.82 291.99"><defs><style>.cls-1{fill:none;}.cls-2{fill:url(#linear-gradient);}.cls-3{clip-path:url(#clippath);}.cls-4{fill:#050606;}.cls-5{fill:#231f20;}.cls-6{clip-path:url(#clippath-1);}.cls-7{clip-path:url(#clippath-4);}.cls-8{clip-path:url(#clippath-3);}.cls-9{clip-path:url(#clippath-2);}.cls-10{clip-path:url(#clippath-7);}.cls-11{clip-path:url(#clippath-8);}.cls-12{clip-path:url(#clippath-6);}.cls-13{clip-path:url(#clippath-5);}.cls-14{fill:url(#linear-gradient-8);}.cls-15{fill:url(#linear-gradient-9);}.cls-16{fill:url(#linear-gradient-3);}.cls-17{fill:url(#linear-gradient-4);}.cls-18{fill:url(#linear-gradient-2);}.cls-19{fill:url(#linear-gradient-6);}.cls-20{fill:url(#linear-gradient-7);}.cls-21{fill:url(#linear-gradient-5);}.cls-22{fill:url(#linear-gradient-10);}</style><clipPath id="clippath"><polygon class="cls-1" points="126.08 145.55 104.08 158.24 103.33 135.27 126.03 122.19 126.08 145.55"/></clipPath><linearGradient id="linear-gradient" x1="89.85" y1="143.44" x2="152.86" y2="143.44" gradientUnits="userSpaceOnUse"><stop offset="0" stop-color="#4eaf48"/><stop offset=".05" stop-color="#4aab49"/><stop offset=".39" stop-color="#349455"/><stop offset=".71" stop-color="#27865b"/><stop offset=".99" stop-color="#23825e"/></linearGradient><clipPath id="clippath-1"><path class="cls-1" d="m126.05,172.73l-24.07-13.89-.02-25.47,24.02-13.89,22.66,13.1-.12,25.89-22.47,14.27Zm-21.96-14.71l21.96,12.62,20.7-12.35-.09-24.11-20.65-11.99-21.89,12.62-.03,23.2Z"/></clipPath><linearGradient id="linear-gradient-2" x1="71.68" y1="147.8" x2="156.02" y2="147.8" gradientUnits="userSpaceOnUse"><stop offset="0" stop-color="#e22483"/><stop offset=".14" stop-color="#cb2784"/><stop offset=".37" stop-color="#ac2b86"/><stop offset=".59" stop-color="#952f87"/><stop offset=".81" stop-color="#873188"/><stop offset=".99" stop-color="#833289"/></linearGradient><clipPath id="clippath-2"><path class="cls-1" d="m166.21,168.61l21.03,12.19c-.19.07-61.09,35.91-61.21,35.79l-.02-24.75c.5-.5,40.2-23.24,40.2-23.24Z"/></clipPath><linearGradient id="linear-gradient-3" x1="99.27" y1="116.58" x2="225.91" y2="116.58" gradientTransform="translate(5.3 65.04)" xlink:href="#linear-gradient-2"/><clipPath id="clippath-3"><polygon class="cls-5" points="126.1 101.86 163.6 123.55 163.55 167.07 151.37 160.06 151.43 131.27 126.1 116.6 126.1 101.86"/></clipPath><linearGradient id="linear-gradient-4" x1="3116.63" y1="-954.15" x2="3192" y2="-954.15" gradientTransform="translate(-3014.99 1087.53)" gradientUnits="userSpaceOnUse"><stop offset="0" stop-color="#e22483"/><stop offset=".08" stop-color="#e22875"/><stop offset=".29" stop-color="#e43256"/><stop offset=".5" stop-color="#e5393f"/><stop offset=".69" stop-color="#e53d31"/><stop offset=".86" stop-color="#e63f2d"/></linearGradient><linearGradient id="linear-gradient-5" x1="65.18" y1="145.6" x2="187.26" y2="145.6" xlink:href="#linear-gradient"/><clipPath id="clippath-4"><polygon class="cls-1" points="148.56 159.1 126.07 172.75 126.06 145.55 148.64 132.52 148.56 159.1"/></clipPath><linearGradient id="linear-gradient-6" x1="119.96" y1="152.31" x2="175.33" y2="152.31" xlink:href="#linear-gradient-2"/><clipPath id="clippath-5"><path class="cls-1" d="m126.14,284.43l120.28-69.11-.02-139.08L126.14,7.36,6.54,74.63l.02,140.78,119.58,69.02Zm-.07,7.56L0,219.04.02,70.65,126.14,0l126.68,72.33-.07,146.78-126.68,72.88Z"/></clipPath><linearGradient id="linear-gradient-7" x1="-75.3" y1="246.97" x2="334.65" y2="10.29" gradientUnits="userSpaceOnUse"><stop offset="0" stop-color="#fff"/><stop offset=".07" stop-color="#e5d5e7"/><stop offset=".16" stop-color="#c8a4ca"/><stop offset=".25" stop-color="#af7bb3"/><stop offset=".34" stop-color="#9b5ba0"/><stop offset=".42" stop-color="#8e4493"/><stop offset=".5" stop-color="#85368b"/><stop offset=".57" stop-color="#833289"/><stop offset=".99" stop-color="#833289"/><stop offset="1" stop-color="#000"/></linearGradient><clipPath id="clippath-6"><path class="cls-1" d="m126.04,242.13l84.01-48.08-.02-96.69s-83.94-48.82-83.93-48.82l.05,21.63,65.09,37.53.04,75.5-65.2,38.17-.03,20.77Z"/></clipPath><linearGradient id="linear-gradient-8" x1="3081.69" y1="-965.33" x2="3246.09" y2="-965.33" gradientTransform="translate(-3034.13 1109.89)" xlink:href="#linear-gradient-4"/><clipPath id="clippath-7"><polygon class="cls-1" points="227.42 83.09 227.58 204.15 210.08 194 126.04 242.09 42.98 194.11 21.05 205.2 21.16 206.6 126.07 267.26 231.48 206.69 231.44 84.82 227.42 83.09"/></clipPath><linearGradient id="linear-gradient-9" x1="21.31" y1="187.06" x2="288.15" y2="187.06" xlink:href="#linear-gradient-2"/><clipPath id="clippath-8"><polygon class="cls-1" points="42.93 194.25 42.84 96.72 126.05 48.53 209.96 97.35 231.44 84.8 126.14 24.45 21.39 83.5 21.32 206.37 42.93 194.25"/></clipPath><linearGradient id="linear-gradient-10" x1="19.49" y1="116.84" x2="278.5" y2="116.84" xlink:href="#linear-gradient-2"/></defs><g id="Layer_1-2"><path class="cls-4" d="m125.99,290.53L1.88,218.72l.02-146.08L126.06,3.09l124.71,71.21-.07,144.49-124.71,71.74Z"/><path class="cls-4" d="m125.94,289.61L1.82,218.19l.02-145.28L126,3.73l124.71,70.82-.07,143.71-124.71,71.35Z"/><path class="cls-4" d="m125.94,288.48L1.82,217.06l.02-145.28L126,2.6l124.71,70.82-.07,143.71-124.71,71.35Z"/><g class="cls-3"><rect class="cls-2" x="89.85" y="111.56" width="63.01" height="63.75"/></g><g class="cls-6"><rect class="cls-18" x="71.68" y="115.37" width="84.34" height="64.85"/></g><g class="cls-9"><rect class="cls-16" x="104.56" y="132.93" width="126.64" height="97.38" transform="translate(3.06 -2.78) rotate(.96)"/></g><polygon class="cls-5" points="126.1 101.86 163.6 123.55 163.55 167.07 151.37 160.06 151.43 131.27 126.1 116.6 126.1 101.86"/><g class="cls-8"><rect class="cls-17" x="101.65" y="96.76" width="75.36" height="73.25" transform="translate(278.66 266.77) rotate(180)"/></g><polygon class="cls-21" points="65.18 109.52 65.18 181.26 126.03 216.57 125.98 191.84 85.84 168.6 85.91 120.83 125.91 97.82 166.21 121.34 166.17 168.61 187.23 180.8 187.26 109.98 126.06 74.64 65.18 109.52"/><g class="cls-7"><polygon class="cls-19" points="175.33 173.39 119.96 173.74 120.02 130.87 175.33 130.87 175.33 173.39"/></g><g class="cls-13"><rect class="cls-20" x="-44.22" y="-43.55" width="347.78" height="344.36"/></g><g class="cls-12"><rect class="cls-14" x="47.56" y="46.82" width="164.4" height="195.48" transform="translate(259.52 289.12) rotate(180)"/></g><g class="cls-10"><polygon class="cls-15" points="288.15 296.95 21.31 296.95 21.31 113.14 288.15 77.18 288.15 296.95"/></g><g class="cls-11"><rect class="cls-22" x="19.49" y="21.65" width="259.02" height="190.38"/></g></g></svg>