<?xml version="1.0" encoding="utf-8"?>
<!-- Generator: Adobe Illustrator 27.7.0, SVG Export Plug-In . SVG Version: 6.00 Build 0)  -->
<svg version="1.1" id="Layer_1" xmlns="http://www.w3.org/2000/svg" xmlns:xlink="http://www.w3.org/1999/xlink" x="0px" y="0px"
	 viewBox="0 0 60 60" style="enable-background:new 0 0 60 60;" xml:space="preserve">
<style type="text/css">
	.st0{fill:#FFFFFF;}
	.st1{fill:#005580;}
	.st2{fill:#FDF287;}
	.st3{fill:#045BA7;}
	.st4{fill:#5D2E8D;}
	.st5{fill:#EE4034;}
	.st6{fill:#F8D307;}
	.st7{fill:#F7952C;}
	.st8{fill:#BED630;}
	.st9{fill:#F1BCD6;}
	.st10{fill:#D7E5DF;}
	.st11{fill:#BB6AA8;}
	.st12{fill:#7A447E;}
	.st13{fill:#47BCA0;}
	.st14{fill:#A1258B;}
	.st15{fill:#2483C5;}
	.st16{fill:#2398D4;}
	.st17{fill:#54B7E7;}
	.st18{fill:#A7CBDC;}
</style>
<!-- <g>
	<path class="st0" d="M5.6,83.8c0-9.8,7.2-16.3,16.2-16.3c5.6,0,9.5,2.5,12.3,5.9L31,75.3c-2-2.5-5.3-4.3-9.1-4.3
		C15,71,9.7,76.3,9.7,83.8S15,96.7,21.9,96.7c3.8,0,6.9-1.8,8.5-3.4v-6.4H19.5v-3.5h14.8v11.4c-2.9,3.3-7.2,5.4-12.4,5.4
		C12.9,100.2,5.6,93.6,5.6,83.8L5.6,83.8z"/>
	<path class="st0" d="M58.9,99.5l-8-12.5h-6.3v12.5h-3.9V68h12.7c5.8,0,9.9,3.7,9.9,9.5s-3.9,8.8-8.2,9.2l8.5,12.9
		C63.5,99.5,58.9,99.5,58.9,99.5z M59.1,77.5c0-3.5-2.6-6-6.3-6h-8.3v12.1h8.3C56.6,83.6,59.1,81.1,59.1,77.5L59.1,77.5z"/>
	<path class="st0" d="M91.9,99.5l-2.8-7H73.4l-2.8,7h-4.5L78.8,68h4.9l12.7,31.6L91.9,99.5L91.9,99.5z M81.3,72.1l-6.7,17H88
		L81.3,72.1z"/>
</g> -->
<!-- <g>
	<path class="st0" d="M97.5,83.8c0-9.7,7.1-16.3,16.2-16.3c5.6,0,9.5,2.7,12,6.2l-3.3,1.8c-1.8-2.6-5.1-4.6-8.7-4.6
		c-6.9,0-12.2,5.3-12.2,12.8s5.3,12.8,12.2,12.8c3.6,0,6.9-1.9,8.7-4.6l3.4,1.8c-2.6,3.6-6.4,6.2-12,6.2
		C104.6,100.1,97.5,93.5,97.5,83.8L97.5,83.8z"/>
	<path class="st0" d="M130.8,99.5V68h20.7v3.5h-16.7v10.2h16.4v3.5h-16.4v10.9h16.7v3.5L130.8,99.5L130.8,99.5z"/>
	<path class="st0" d="M192.2,99.5V85.1h-18.5v14.5h-3.9V68h3.9v13.6h18.5V68h3.9v31.6L192.2,99.5L192.2,99.5z"/>
	<path class="st0" d="M202.3,83.8c0-9.3,6.3-16.3,15.7-16.3s15.7,7,15.7,16.3s-6.3,16.3-15.7,16.3
		C208.6,100.1,202.3,93.1,202.3,83.8z M229.5,83.8c0-7.4-4.5-12.8-11.6-12.8s-11.6,5.4-11.6,12.8s4.5,12.8,11.6,12.8
		C225,96.6,229.5,91.1,229.5,83.8z"/>
	<path class="st0" d="M239.8,99.5V68h12.7c6.3,0,9.9,4.3,9.9,9.5s-3.6,9.5-9.9,9.5h-8.8v12.5H239.8L239.8,99.5z M258.2,77.5
		c0-3.5-2.6-6-6.3-6h-8.3v12h8.3C255.8,83.5,258.2,81.1,258.2,77.5L258.2,77.5z"/>
	<path class="st0" d="M267.5,99.5V68h12.7c6.3,0,9.9,4.3,9.9,9.5s-3.6,9.5-9.9,9.5h-8.8v12.5C271.4,99.5,267.5,99.5,267.5,99.5z
		 M286,77.5c0-3.5-2.6-6-6.3-6h-8.3v12h8.3C283.4,83.5,286,81.1,286,77.5L286,77.5z"/>
	<path class="st0" d="M295.4,99.5V68h20.7v3.5h-16.7v10.2h16.4v3.5h-16.4v10.9h16.7v3.5L295.4,99.5L295.4,99.5z"/>
	<path class="st0" d="M340.5,99.5l-8-12.5h-6.4v12.5h-3.9V68H335c5.8,0,9.9,3.7,9.9,9.5s-3.9,8.8-8.2,9.2l8.5,12.9L340.5,99.5
		L340.5,99.5z M340.8,77.5c0-3.5-2.6-6-6.3-6h-8.3v12.1h8.3C338.1,83.6,340.8,81.1,340.8,77.5L340.8,77.5z"/>
</g> -->
<!-- <g>
	<g>
		<path class="st0" d="M5.5,126.2c0-10.5,7.9-17.5,18.4-17.5c8.2,0,12.6,4.6,14.8,9.1l-7.5,3.6c-1.1-2.7-4-4.9-7.3-4.9
			c-5.5,0-9.5,4.3-9.5,9.8c0,5.5,3.9,9.8,9.5,9.8c3.3,0,6.2-2.2,7.3-4.9l7.5,3.6c-2.2,4.4-6.6,9.1-14.8,9.1
			C13.5,143.7,5.5,136.6,5.5,126.2L5.5,126.2z"/>
		<path class="st0" d="M42.5,143.1v-33.9h24.9v7.6H51.2v5.3H67v7.6H51.2v5.8h16.1v7.6L42.5,143.1L42.5,143.1z"/>
		<path class="st0" d="M72.4,143.1v-33.9h8.7v26.3h13.6v7.6H72.4L72.4,143.1z"/>
		<path class="st0" d="M99.3,143.1v-33.9h24.9v7.6h-16.1v5.3h15.8v7.6h-15.8v5.8h16.1v7.6L99.3,143.1L99.3,143.1z"/>
		<path class="st0" d="M129.3,143.1v-33.9h19.2c6.7,0,9.9,4.4,9.9,8.6c0,4.3-2.6,7.1-5.8,7.8c3.6,0.6,6.5,4,6.5,8.3
			c0,4.9-3.3,9.2-10,9.2H129.3L129.3,143.1z M149.5,119.4c0-1.6-1.2-2.8-3-2.8H138v5.6h8.5C148.3,122.2,149.5,121.1,149.5,119.4z
			 M150.2,132.7c0-1.7-1.2-3-3.4-3H138v6.1h8.8C148.9,135.8,150.2,134.5,150.2,132.7z"/>
		<path class="st0" d="M182.8,143.1l-5.7-11.4h-4.5v11.4h-8.7v-33.9h17c7.5,0,11.8,5,11.8,11.3c0,5.9-3.6,9.1-6.8,10.2l6.9,12.5h-10
			V143.1z M183.8,120.5c0-2.3-1.9-3.6-4.2-3.6h-6.9v7.3h6.9C181.8,124.1,183.8,122.8,183.8,120.5L183.8,120.5z"/>
		<path class="st0" d="M220.5,143.1l-1.7-4.9h-13.4l-1.7,4.9h-9.9l12.8-33.9h11l12.8,33.9H220.5L220.5,143.1z M212.1,117.9
			l-4.3,12.8h8.6L212.1,117.9L212.1,117.9z"/>
	</g>
	<g>
		<path class="st0" d="M237.4,143.1v-26.3h-9.5v-7.6h27.7v7.6h-9.5v26.3H237.4z"/>
		<path class="st0" d="M259.8,143.1v-33.9h8.7v33.9H259.8z"/>
		<path class="st0" d="M272.9,126.2c0-10.3,7.8-17.5,18.2-17.5s18.1,7.2,18.1,17.5s-7.7,17.5-18.1,17.5S272.9,136.5,272.9,126.2z
			 M300.2,126.2c0-5.5-3.6-9.8-9.2-9.8s-9.3,4.3-9.3,9.8s3.6,9.8,9.3,9.8C296.8,136,300.2,131.7,300.2,126.2z"/>
		<path class="st0" d="M336.6,143.1l-14.3-19.6v19.6h-8.7v-33.9h9l13.7,18.7v-18.7h8.8v33.9H336.6L336.6,143.1z"/>
	</g>
</g> -->
<!-- <g>
	<path class="st0" d="M217.4,53.2h23.5v2.2h-27.5v-0.8l20.2-24.1c2.7-3.2,4.7-6.9,4.7-10.7c0-6.5-4.8-10.7-11.4-10.7
		c-5.6,0-10.2,2.8-11.5,7.6l-2.1-0.6c1.6-5.8,7.1-9.2,13.6-9.2c7.8,0,13.5,5.1,13.5,12.9c0,4.3-2.2,8.5-5.2,12L217.4,53.2
		L217.4,53.2z"/>
	<path class="st0" d="M244.9,31.5c0-13.7,3.4-24.6,16.7-24.6c13.3,0,16.5,11,16.5,24.6s-3.2,24.7-16.5,24.7S244.9,45,244.9,31.5
		L244.9,31.5z M275.9,31.5C275.9,19,273.1,9,261.6,9c-11.6,0-14.5,10-14.5,22.5s3,22.6,14.5,22.6C273.1,54,275.9,43.8,275.9,31.5z"
		/>
	<path class="st0" d="M285.6,53.2h23.5v2.2h-27.5v-0.8l20.2-24.1c2.7-3.2,4.7-6.9,4.7-10.7c0-6.5-4.8-10.7-11.4-10.7
		c-5.6,0-10.2,2.8-11.5,7.6l-2.1-0.6c1.6-5.8,7.1-9.2,13.6-9.2c7.8,0,13.5,5.1,13.5,12.9c0,4.3-2.2,8.5-5.2,12L285.6,53.2
		L285.6,53.2z"/>
	<path class="st0" d="M345.1,42.2c0,8.3-7.2,14-16.8,14c-6.4,0-12.3-3.6-14.7-8.9l1.9-0.9c2.1,4.6,7.1,7.6,12.6,7.6
		c8.4,0,14.8-4.8,14.8-11.8s-5.3-11.5-12-11.5h-4.8v-2.2h4.8c5.6,0,9.3-3.8,9.3-9.6s-4.7-10-11.7-10c-4.5,0-8.8,2.4-10.6,5.7
		l-1.9-1.1c2.3-4,7.3-6.8,12.5-6.8c8.4,0,13.9,5,13.9,12.2c0,4.5-2.7,8.7-6.8,10.5C340.9,30.7,345.1,35.6,345.1,42.2L345.1,42.2z"/>
</g> -->
<g>
	<!-- <g>
		<path class="st0" d="M97.7,22.4H84.6l-2.9,5.7H79L90,6.8h3.1l10.1,21.3h-2.7L97.7,22.4z M96.7,20.2L91.4,9l-5.7,11.2H96.7z"/>
		<polygon class="st0" points="127,6.9 127,28.2 124.3,28.2 108.8,10.1 108.8,28.2 106.3,28.2 106.3,6.9 109,6.9 124.5,24.8 
			124.5,6.9 		"/>
		<rect x="133.5" y="6.9" class="st0" width="2.6" height="21.3"/>
		<polygon class="st0" points="160.8,9.1 151.6,9.1 151.6,28.2 148.9,28.2 148.9,9.1 139.8,9.1 139.8,6.9 160.8,6.9 		"/>
		<path class="st0" d="M170.9,9l5.2,11.2h-11L170.9,9z M169.4,6.9l-11,21.3h2.7l2.9-5.7h13.1l2.7,5.7h2.7l-10-21.3
			C172.5,6.9,169.4,6.9,169.4,6.9z"/>
		<path class="st0" d="M98.1,48.6v0.3c0,3.8-2.5,6.3-7.9,6.3H77.7V33.9h12.1c4.8,0,6.8,2.2,6.8,5.3v0.3c0,2.5-1.7,4.3-3.6,4.5
			C95.4,43.9,98.1,45.3,98.1,48.6 M80.2,36.2v6.9h9.9c2.5,0,4-1.3,4-3.5v-0.2c0-2.3-1.5-3.3-4.3-3.3C89.8,36.2,80.2,36.2,80.2,36.2z
			 M95.6,48.7c0-2.6-1.9-3.5-4.7-3.5H80.2v7.7h9.9c3.6,0,5.4-1.3,5.4-3.9L95.6,48.7L95.6,48.7z"/>
	</g>
	<g>
		<rect x="104.4" y="52" class="st0" width="3.2" height="3.2"/>
		<path class="st0" d="M133.8,44.3v0.6c0,6.1-4.5,10.6-11.5,10.6S110.8,51,110.8,45v-0.7c0-6.3,4.5-10.7,11.5-10.7
			S133.8,38,133.8,44.3 M113.5,44.3v0.6c0,5.1,3.6,8.3,8.8,8.3c5.3,0,8.8-3.2,8.8-8.4v-0.5c0-5.2-3.5-8.4-8.9-8.4
			S113.5,39.1,113.5,44.3"/>
		<path class="st0" d="M148.8,47h-7.7v8.2h-2.5V33.9h11.3c5.1,0,7.9,2.4,7.9,6.3v0.3c0,3.5-2.2,5.9-6.1,6.4l6.8,8.3h-3L148.8,47
			L148.8,47z M140.9,44.8h9c3.5,0,5.1-1.5,5.1-4.2v-0.2c0-2.9-2-4.1-5.1-4.1H141L140.9,44.8L140.9,44.8z"/>
		<path class="st0" d="M181.1,55.2c-0.2-0.6-0.4-1.3-0.5-2.1c-1.6,1.2-4.3,2.5-8.4,2.5c-6.2,0-11.1-3.7-11.1-10.2v-0.6
			c0-6,4-11.2,11.6-11.2c4.5,0,7.3,1.2,9.5,3.1l-1.5,2c-1.8-1.8-4.2-2.7-8-2.7c-5.8,0-8.9,3.8-8.9,8.7v0.5c0,5.2,3.7,8,8.9,8
			c3.6,0,6.2-0.9,7.8-2.1v-5.2h-7.7v-2H183v7.7c0,1.5,0.1,2.4,0.2,3.6H181.1L181.1,55.2z"/>
		<polygon class="st0" points="54,55.2 51.7,55.2 68.6,6.9 70.8,6.9 		"/>
	</g> -->
	<g>
		<polygon class="st1" points="22.7,55.2 36.8,55.2 29.7,42.9 		"/>
		<polygon class="st2" points="29.7,42.9 43.1,19.8 38.8,19.8 24,33 		"/>
		<path class="st3" d="M22.7,55.2L11.9,43.8l-6.3,5.6v5.7l0,0L22.7,55.2L22.7,55.2z"/>
		<polygon class="st4" points="11.9,43.8 5.6,37.1 5.6,49.5 		"/>
		<path class="st5" d="M9,6.9H5.6l0,0v12.9h10.8L9,6.9z"/>
		<polygon class="st6" points="43.1,19.8 43.1,19.8 47.6,12 38.8,19.8 		"/>
		<polygon class="st7" points="16.4,19.8 16.4,19.8 26,19.8 53.9,6.9 9,6.9 		"/>
		<polygon class="st8" points="26,19.8 38.8,19.8 47.6,12 47.6,12 43.1,19.8 43.1,19.8 49.3,19.8 53.9,6.9 53.9,6.9 		"/>
		<polygon class="st8" points="47.6,12 47.6,12 38.8,19.8 		"/>
		<polygon class="st9" points="16.4,19.8 16.4,19.8 18.4,23.3 26,19.8 26,19.8 		"/>
		<polygon class="st10" points="26,19.8 18.4,23.3 24,33 38.8,19.8 		"/>
		<polygon class="st2" points="38.8,19.8 38.8,19.8 24,33 		"/>
		<polygon class="st11" points="16.4,19.8 5.6,19.8 5.6,25.3 8.9,27.7 18.4,23.3 		"/>
		<polygon class="st12" points="5.6,25.3 5.6,29.3 8.9,27.7 		"/>
		<polygon class="st13" points="24,33 18.4,23.3 8.9,27.7 8.9,27.7 20.5,36.2 		"/>
		<polygon class="st14" points="8.9,27.7 5.6,29.3 5.6,37.1 11.9,43.8 11.9,43.8 5.6,37.1 5.6,37.1 11.9,43.8 11.9,43.8 20.5,36.2 
					"/>
		<polygon class="st15" points="29.7,42.9 20.5,36.2 11.9,43.8 22.7,55.2 		"/>
		<polygon class="st16" points="29.7,42.9 36.8,55.2 38.8,49.6 		"/>
		<polygon class="st17" points="49.3,19.8 43.1,19.8 29.7,42.9 38.8,49.6 		"/>
		<polygon class="st18" points="24,33 20.5,36.2 29.7,42.9 29.7,42.9 		"/>
	</g>
</g>
</svg>
