<svg xmlns="http://www.w3.org/2000/svg" xmlns:xlink="http://www.w3.org/1999/xlink" viewBox="0 0 184.83 201.22"><defs><style>.cls-1{fill:#fff;fill-rule:evenodd;}.cls-2{mask:url(#mask);}</style><mask id="mask" x="-117.65" y="-197.77" width="841.89" height="595.28" maskUnits="userSpaceOnUse"><g id="mask-2"><polygon id="path-1" class="cls-1" points="-117.65 397.51 724.24 397.51 724.24 -197.77 -117.65 -197.77 -117.65 397.51"/></g></mask></defs><g id="Layer_2" data-name="Layer 2"><g id="Layer_1-2" data-name="Layer 1"><g class="cls-2"><g id="Fill-793"><path class="cls-1" d="M161,113.36,122.36,62.77V10.44h31.93A6.71,6.71,0,0,1,161,17.15Zm-6.33,21.5H125.76a20.89,20.89,0,0,1-16.6-8.19L26.33,18.53a5,5,0,0,1,4-8.09h28.8a20.92,20.92,0,0,1,16.6,8.19l82.94,108.14a5,5,0,0,1-4,8.09Zm-92.11,0H30.64a6.7,6.7,0,0,1-6.71-6.7V31.65L62.56,82.44ZM154.08,0H117.65a5.24,5.24,0,0,0-5.23,5.23V49.84L83.82,12.29A31.15,31.15,0,0,0,59,0H30.75a17,17,0,0,0-17,17V128.44a17,17,0,0,0,17,17H67.28a5.23,5.23,0,0,0,5.23-5.22V95.1L101,133a31.19,31.19,0,0,0,24.93,12.44h28.2a17,17,0,0,0,17-17V17a17,17,0,0,0-17-17Z"/></g></g><g class="cls-2"><g id="Fill-794"><polygon class="cls-1" points="27.19 200.57 21.5 200.57 7.34 184.37 7.34 200.57 0 200.57 0 171.03 5.6 171.03 19.85 187.67 19.85 171.03 27.19 171.03 27.19 200.57"/></g></g><g class="cls-2"><g id="Fill-795"><path class="cls-1" d="M35,188h8.6a3.9,3.9,0,0,0-4.17-3.51A4.3,4.3,0,0,0,35,188m15.08,4,0,.13h-15a4.55,4.55,0,0,0,4.73,3.39A3.65,3.65,0,0,0,43.07,194h7c-1,4.34-5,7.08-10.25,7.08-6.91,0-11.51-4.6-11.51-11s4.47-11,11.2-11c6.13,0,10.78,4.21,10.78,10.55a14.74,14.74,0,0,1-.13,2.39"/></g></g><g class="cls-2"><g id="Fill-796"><path class="cls-1" d="M67.23,193.27v-6.51a5.45,5.45,0,0,0-4.39-2,5.24,5.24,0,0,0,0,10.47,5.41,5.41,0,0,0,4.39-2Zm7,7.3h-7V199.4A10.49,10.49,0,0,1,61.45,201a11,11,0,0,1,0-22,10.49,10.49,0,0,1,5.78,1.61V179.5h7Z"/></g></g><g class="cls-2"><g id="Fill-797"><path class="cls-1" d="M90.19,185.85c-3.43.13-5.6,1-7.25,2.69v12h-7V179.5h7v2.26a10.58,10.58,0,0,1,7.25-2.6Z"/></g></g><g class="cls-2"><g id="Fill-798"><path class="cls-1" d="M113.21,177.51V171h-22v29.55h7.35V190.15h11V190a12.75,12.75,0,0,1,1.58-6.26H98.53v-6.25Z"/></g></g><g class="cls-2"><g id="Fill-799"><path class="cls-1" d="M148.68,185.85c-3.43.13-5.6,1-7.25,2.69v12h-7V179.5h7v2.26a10.58,10.58,0,0,1,7.25-2.6Z"/></g></g><g class="cls-2"><g id="Fill-800"><path class="cls-1" d="M184.83,188.54v12h-7.08v-10.9c0-3-1.44-4.43-3.78-4.43a4.09,4.09,0,0,0-3.22,1.74c.05.52.09,1,.09,1.56v12h-7v-10.9c0-3-1.47-4.43-3.78-4.43a4,4,0,0,0-3.17,1.87v13.46h-7V179.5h7v1.26a7.46,7.46,0,0,1,5.26-1.91,8.26,8.26,0,0,1,6.47,2.83,10.29,10.29,0,0,1,7.47-2.83c5,0,8.78,3.69,8.78,9.69"/></g></g><g class="cls-2"><g id="Fill-801"><path class="cls-1" d="M126.88,190.06a4.76,4.76,0,1,0-9.51,0,4.77,4.77,0,1,0,9.51,0m6.65,0c0,6.42-4.78,11.2-11.43,11.2s-11.42-4.78-11.42-11.2,4.77-11,11.42-11,11.43,4.65,11.43,11"/></g></g></g></g></svg>