<svg xmlns="http://www.w3.org/2000/svg" viewBox="0 0 324.64 47.47"><defs><style>.cls-1{fill:#fff;fill-rule:evenodd;}</style></defs><g id="Layer_2" data-name="Layer 2"><g id="Layer_1-2" data-name="Layer 1"><path class="cls-1" d="M48.06,37,35.44,20.49V3.41H45.87A2.19,2.19,0,0,1,48.06,5.6ZM46,44H36.55a6.84,6.84,0,0,1-5.42-2.68L4.1,6.05A1.64,1.64,0,0,1,5.4,3.41h9.4a6.83,6.83,0,0,1,5.42,2.67L47.3,41.38A1.65,1.65,0,0,1,46,44ZM15.92,44H5.5a2.2,2.2,0,0,1-2.19-2.19V10.33L15.92,26.91ZM45.8,0H33.9a1.71,1.71,0,0,0-1.7,1.71V16.27L22.86,4a10.16,10.16,0,0,0-8.09-4H5.54A5.54,5.54,0,0,0,0,5.54V41.93a5.54,5.54,0,0,0,5.54,5.54H17.46a1.71,1.71,0,0,0,1.71-1.71V31L28.45,43.4a10.2,10.2,0,0,0,8.14,4.07H45.8a5.53,5.53,0,0,0,5.53-5.54V5.54A5.53,5.53,0,0,0,45.8,0Z"/><polygon class="cls-1" points="114.8 43.4 107.22 43.4 88.37 21.82 88.37 43.4 78.6 43.4 78.6 4.07 86.06 4.07 105.03 26.22 105.03 4.07 114.8 4.07 114.8 43.4"/><path class="cls-1" d="M125.23,26.62h11.45a5.19,5.19,0,0,0-5.55-4.68,5.73,5.73,0,0,0-5.9,4.68m20.07,5.32-.06.18H125.35a6.05,6.05,0,0,0,6.3,4.51,4.81,4.81,0,0,0,4.28-2h9.25c-1.33,5.79-6.71,9.43-13.65,9.43-9.19,0-15.32-6.13-15.32-14.69s6-14.63,14.92-14.63c8.15,0,14.34,5.61,14.34,14.05a20,20,0,0,1-.17,3.18"/><path class="cls-1" d="M168.09,33.68V25a7.24,7.24,0,0,0-5.84-2.66,6.69,6.69,0,0,0-6.59,7,6.64,6.64,0,0,0,6.59,6.94,7.2,7.2,0,0,0,5.84-2.6Zm9.37,9.71h-9.37V41.83A14,14,0,0,1,160.4,44c-7.57,0-13.93-6.3-13.93-14.63s6.36-14.63,13.93-14.63a14,14,0,0,1,7.69,2.14v-1.5h9.37Z"/><path class="cls-1" d="M198.66,23.79c-4.57.17-7.46,1.39-9.66,3.59v16h-9.37v-28H189v3a14,14,0,0,1,9.66-3.48Z"/><path class="cls-1" d="M229.3,12.69V4.07H200V43.4h9.78V29.52h14.66v-.17A17.05,17.05,0,0,1,226.51,21H209.76V12.69Z"/><path class="cls-1" d="M276.52,23.79c-4.57.17-7.46,1.39-9.66,3.59v16H257.5v-28h9.36v3a14,14,0,0,1,9.66-3.48Z"/><path class="cls-1" d="M324.64,27.38v16h-9.43V28.88c0-4-1.91-5.9-5-5.9a5.48,5.48,0,0,0-4.28,2.31c.06.7.12,1.39.12,2.09v16h-9.37V28.88c0-4-2-5.9-5-5.9-1.45,0-2.84.7-4.23,2.49V43.39H278v-28h9.36V17a9.89,9.89,0,0,1,7-2.55A11,11,0,0,1,303,18.24,13.7,13.7,0,0,1,313,14.48c6.71,0,11.69,4.92,11.69,12.9"/><path class="cls-1" d="M247.49,29.4a6.34,6.34,0,1,0-12.66,0c0,3.76,2.55,6.77,6.36,6.77s6.3-3,6.3-6.77m8.85-.06c0,8.56-6.36,14.92-15.21,14.92s-15.2-6.36-15.2-14.92,6.36-14.63,15.2-14.63,15.21,6.19,15.21,14.63"/></g></g></svg>